<?xml version="1.0" encoding="UTF-8" standalone="no"?>
<!-- Created with Inkscape (http://www.inkscape.org/) -->

<svg
   width="800"
   height="800"
   viewBox="0 0 211.66666 211.66667"
   version="1.1"
   id="svg5"
   xml:space="preserve"
   inkscape:export-filename="Development/Swirl-branding/logos/logo.png"
   inkscape:export-xdpi="96"
   inkscape:export-ydpi="96"
   inkscape:version="1.2.2 (b0a8486541, 2022-12-01)"
   sodipodi:docname="logo.svg"
   xmlns:inkscape="http://www.inkscape.org/namespaces/inkscape"
   xmlns:sodipodi="http://sodipodi.sourceforge.net/DTD/sodipodi-0.dtd"
   xmlns:xlink="http://www.w3.org/1999/xlink"
   xmlns="http://www.w3.org/2000/svg"
   xmlns:svg="http://www.w3.org/2000/svg"><sodipodi:namedview
     id="namedview7"
     pagecolor="#ffffff"
     bordercolor="#eeeeee"
     borderopacity="1"
     inkscape:showpageshadow="0"
     inkscape:pageopacity="0"
     inkscape:pagecheckerboard="0"
     inkscape:deskcolor="#505050"
     inkscape:document-units="mm"
     showgrid="false"
     inkscape:lockguides="true"
     inkscape:zoom="0.35355339"
     inkscape:cx="745.29055"
     inkscape:cy="429.92092"
     inkscape:window-width="1366"
     inkscape:window-height="699"
     inkscape:window-x="0"
     inkscape:window-y="0"
     inkscape:window-maximized="1"
     inkscape:current-layer="g36670"><inkscape:page
       x="0"
       y="0"
       width="211.66666"
       height="211.66667"
       id="page36588" /><inkscape:page
       x="243.35582"
       y="-8.7646487e-07"
       width="211.66669"
       height="211.66667"
       id="page36664"
       inkscape:export-filename="Development/Swirl-branding/logos/logo-transparent.png"
       inkscape:export-xdpi="96"
       inkscape:export-ydpi="96" /></sodipodi:namedview><defs
     id="defs2"><linearGradient
       inkscape:collect="always"
       id="linearGradient922"><stop
         style="stop-color:#4a00e0;stop-opacity:1;"
         offset="0"
         id="stop914" /><stop
         style="stop-color:#bc02c3;stop-opacity:1;"
         offset="0.25422731"
         id="stop916" /><stop
         style="stop-color:#f87965;stop-opacity:1;"
         offset="0.6862514"
         id="stop918" /><stop
         style="stop-color:#ffffff;stop-opacity:1;"
         offset="1"
         id="stop920" /></linearGradient><linearGradient
       inkscape:collect="always"
       id="linearGradient36249"><stop
         style="stop-color:#540002;stop-opacity:1;"
         offset="0"
         id="stop36245" /><stop
         style="stop-color:#f87965;stop-opacity:1;"
         offset="1"
         id="stop36247" /></linearGradient><inkscape:path-effect
       effect="spiro"
       id="path-effect30201"
       is_visible="true"
       lpeversion="1" /><linearGradient
       inkscape:collect="always"
       id="linearGradient9148"><stop
         style="stop-color:#4a00e0;stop-opacity:1;"
         offset="0"
         id="stop9144" /><stop
         style="stop-color:#d202d9;stop-opacity:0.8313725;"
         offset="0.25422731"
         id="stop10691" /><stop
         style="stop-color:#f87965;stop-opacity:1;"
         offset="0.6862514"
         id="stop12145" /><stop
         style="stop-color:#ffffff;stop-opacity:1;"
         offset="1"
         id="stop9146" /></linearGradient><filter
       style="color-interpolation-filters:sRGB;"
       inkscape:label="Lightness-Contrast"
       id="filter519"
       x="0"
       y="0"
       width="1"
       height="1"><feColorMatrix
         values="1.56992 0 0 0.0745929 -0.284958 0 1.56992 0 0.0745929 -0.284958 0 0 1.56992 0.0745929 -0.284958 0 0 0 1 0"
         id="feColorMatrix517" /></filter><linearGradient
       inkscape:collect="always"
       xlink:href="#linearGradient922"
       id="linearGradient18693"
       x1="144.69907"
       y1="147.2684"
       x2="64.52739"
       y2="60.315109"
       gradientUnits="userSpaceOnUse"
       spreadMethod="reflect"
       gradientTransform="matrix(1.3662199,0,0,1.3662199,-38.758487,-38.758326)" /><linearGradient
       inkscape:collect="always"
       xlink:href="#linearGradient9148"
       id="linearGradient22366"
       x1="144.69907"
       y1="147.2684"
       x2="64.52739"
       y2="60.315109"
       gradientUnits="userSpaceOnUse"
       gradientTransform="matrix(1.3662199,0,0,1.3662199,-38.758487,-38.758326)" /><linearGradient
       inkscape:collect="always"
       xlink:href="#linearGradient36249"
       id="linearGradient36251"
       x1="49.28828"
       y1="114.04382"
       x2="161.62784"
       y2="42.371834"
       gradientUnits="userSpaceOnUse" /><linearGradient
       inkscape:collect="always"
       xlink:href="#linearGradient922"
       id="linearGradient36672"
       gradientUnits="userSpaceOnUse"
       gradientTransform="matrix(1.3662199,0,0,1.3662199,-38.758487,-38.758326)"
       x1="144.69907"
       y1="147.2684"
       x2="64.52739"
       y2="60.315109"
       spreadMethod="reflect" /><linearGradient
       inkscape:collect="always"
       xlink:href="#linearGradient9148"
       id="linearGradient36674"
       gradientUnits="userSpaceOnUse"
       gradientTransform="matrix(1.3662199,0,0,1.3662199,-38.758487,-38.758326)"
       x1="144.69907"
       y1="147.2684"
       x2="64.52739"
       y2="60.315109" /><linearGradient
       inkscape:collect="always"
       xlink:href="#linearGradient36249"
       id="linearGradient36676"
       gradientUnits="userSpaceOnUse"
       x1="49.28828"
       y1="114.04382"
       x2="161.62784"
       y2="42.371834" /></defs><g
     inkscape:label="Layer 1"
     inkscape:groupmode="layer"
     id="layer1"><rect
       style="opacity:1;fill:#000d1f;fill-opacity:1;stroke:none;stroke-width:0.265507;stroke-linecap:round;stroke-dasharray:none;stroke-opacity:1"
       id="rect16503"
       width="211.66667"
       height="211.66667"
       x="-5.6843419e-14"
       y="1.7763568e-15" /><ellipse
       style="opacity:0.50175;fill:none;fill-opacity:1;stroke:none;stroke-width:0.36;stroke-linecap:round;stroke-dasharray:none;stroke-opacity:1"
       id="path9061"
       cx="70.71093"
       cy="101.71833"
       rx="12.298248"
       ry="15.216655" /><g
       id="g36600"><path
         id="rect7367"
         style="opacity:1;fill:url(#linearGradient18693);fill-opacity:1;stroke:url(#linearGradient22366);stroke-width:0;stroke-linecap:round;stroke-dasharray:none;stroke-opacity:1"
         d="m 105.48735,22.332303 c -6.137807,-0.0582 -12.311255,0.395986 -17.730831,1.370374 -8.808744,1.583735 -23.114815,7.559158 -31.014476,12.954647 -12.038734,8.222491 -22.133118,20.963384 -27.204827,34.336267 -5.717139,15.074707 -5.985068,32.251469 -0.75332,48.298399 9.630101,29.53769 34.843144,48.38148 63.147272,47.1949 3.857959,-0.16172 8.487652,-0.78215 11.264462,-1.50946 19.36733,-5.07277 33.65045,-20.03355 36.85533,-38.60482 1.23294,-7.1446 0.77191,-12.34667 -1.74174,-19.65966 -4.36042,-12.685916 -12.82401,-20.238106 -25.59794,-22.843082 -8.10287,-1.652413 -16.08119,0.661144 -21.717694,6.29765 -4.041306,4.041292 -5.973154,8.440561 -6.348469,14.456332 -0.345107,5.5317 0.54959,8.45963 3.735519,12.22956 2.046351,2.42146 6.90131,4.80524 9.766989,4.79526 2.555655,-0.01 6.383975,-1.71537 8.145275,-3.63103 1.38266,-1.50381 3.13754,-5.81499 3.13754,-7.70756 0,-2.50688 3.42722,-0.15627 4.71052,3.23073 2.19221,5.78586 -1.5836,12.10338 -9.43445,15.78575 -2.85323,1.33827 -4.04615,1.53902 -8.933914,1.50311 -6.822342,-0.0501 -10.29832,-1.2487 -16.133117,-5.56339 -10.884101,-8.04854 -15.650801,-23.50241 -11.82503,-38.336553 1.538364,-5.964864 5.719065,-14.467851 9.149944,-18.609811 9.594211,-11.58274 28.360467,-18.718346 43.922527,-16.700754 17.57425,2.278464 32.87767,11.968917 44.04326,27.888249 13.35694,19.043669 16.67643,39.098699 10.31979,62.349479 -1.19522,4.37182 -5.69737,16.81462 -7.47385,20.65585 -1.49893,3.24105 -0.55537,2.68531 2.58824,-1.52499 4.62566,-6.19528 8.13295,-12.35381 10.72717,-18.83433 5.41452,-13.5258 6.58818,-22.95434 4.66887,-37.50627 -2.00165,-15.176254 -8.49222,-28.825634 -18.9381,-39.826238 -12.95707,-13.645147 -27.8945,-19.754264 -48.30052,-19.754264 -8.75568,0 -14.44416,0.673526 -20.447576,2.422334 -16.703205,4.865678 -28.041301,14.128716 -35.986935,29.401235 -4.05143,7.787351 -5.746239,12.07168 -5.746239,22.058693 0,6.44558 0.798569,8.69898 2.214055,12.79791 4.471364,12.94815 10.898787,20.72866 21.481882,26.00532 10.139237,5.05535 20.729143,4.93398 29.730233,-0.34101 3.8352,-2.24757 8.87077,-8.07521 10.37982,-12.01212 1.89109,-4.93358 1.91742,-11.41794 0.0615,-15.01409 -1.58385,-3.06877 -5.00963,-6.84495 -7.30301,-8.04926 -4.67125,-2.452952 -10.82799,-2.18409 -14.522698,0.63399 -1.028236,0.78428 -2.036602,1.25911 -2.240196,1.0555 -0.203608,-0.2036 -0.369945,-1.54086 -0.369945,-2.97232 0,-6.869459 5.768239,-10.667072 13.820929,-9.098392 8.89623,1.732995 15.40107,7.378052 18.84209,16.351982 2.89634,7.55345 1.23266,19.34439 -3.77011,26.7212 C 114.70572,149.7138 96.536709,155.00448 77.866727,148.6544 66.36918,144.74381 55.049324,134.07878 49.943883,120.23947 45.443896,108.04131 45.011009,103.72151 45.443759,96.948067 45.876496,90.174622 47.858841,84.466435 49.943883,79.196764 51.998406,74.004222 55.197196,69.37908 58.486651,64.897868 61.698142,60.522958 71.74796,51.049335 76.542245,47.877289 86.428731,41.336126 99.5405,36.182399 110.12168,34.678368 c 15.05538,-2.139992 28.57542,-0.178455 45.24418,6.564511 3.63905,1.47209 7.01715,2.821825 7.50705,2.999146 1.69922,0.615063 -3.88492,-4.048167 -8.66986,-7.240167 -8.64046,-5.764028 -20.93171,-10.871723 -31.19804,-12.964539 -5.27764,-1.075858 -11.3798,-1.646787 -17.5176,-1.705016 z m 10.03246,37.684186 c -2.87915,-0.05006 -5.755,0.191605 -8.59855,0.735666 -15.287135,2.92491 -27.91777,14.062488 -31.10344,27.426515 -1.910904,8.016364 -0.750123,18.93879 2.739339,25.77869 1.561043,3.0599 2.146824,2.80055 0.821099,-0.36361 -1.320971,-3.15277 -1.760976,-11.16304 -0.832397,-15.152459 1.610937,-6.921038 7.665737,-15.093532 14.257953,-19.244527 14.655896,-9.228576 35.402086,-4.819731 48.240506,10.251316 3.55019,4.167558 7.78401,12.64771 9.11817,18.26458 1.49475,6.29299 1.34837,18.7984 -0.29158,24.93994 -2.67531,10.01868 -7.51237,17.91036 -15.67281,25.5704 -19.46443,18.27087 -48.455853,21.96668 -73.069603,9.31444 -12.760317,-6.55921 -24.115503,-17.98741 -30.209609,-30.40237 -1.354826,-2.76004 -2.556376,-4.74051 -2.669444,-4.40129 -0.319859,0.95958 3.265266,10.68745 5.857094,15.89378 8.421489,16.91683 25.197386,30.7151 45.039435,37.04384 11.505375,3.66972 22.386807,4.55876 34.144247,2.78947 18.94074,-2.85028 37.18191,-15.93935 46.44087,-33.32386 8.46922,-15.90168 10.80694,-34.62449 6.39436,-51.20435 C 162.9677,92.067643 158.64811,84.315323 150.69977,76.250569 140.52803,65.92986 127.99606,60.233396 115.51981,60.016489 Z"
         sodipodi:nodetypes="ssssssssssssscsssssssssssssssssssssssssssssssssssscsssssssssssssssssssssssssssss" /><path
         style="opacity:1;fill:url(#linearGradient36251);fill-opacity:1;stroke:none;stroke-width:5.29167;stroke-linecap:round;stroke-dasharray:none;stroke-opacity:1"
         d="m 163.23166,44.308983 c 2.72419,-0.501524 -55.7758,-32.997898 -98.721644,5.892139 0,0 -22.941497,21.075069 -22.182937,51.833138 0.179342,7.27194 3.290432,17.6174 7.595433,25.13955 1.420837,2.48264 19.819272,30.06783 51.310088,23.29793 0,0 -30.850267,7.98422 -48.682157,-26.58582 0,0 -18.392507,-31.523938 13.57735,-64.307527 0,0 32.885533,-40.082672 89.281367,-18.073578 2.57348,1.004332 7.36992,2.887488 7.8225,2.804168 z"
         id="path36243"
         sodipodi:nodetypes="scsscccss" /></g><g
       id="g36670"
       transform="translate(243.35527,-1.3638107e-4)"><path
         id="path36666"
         style="opacity:1;fill:url(#linearGradient36672);fill-opacity:1.0;stroke:url(#linearGradient36674);stroke-width:0;stroke-linecap:round;stroke-dasharray:none;stroke-opacity:1"
         d="m 105.48735,22.332303 c -6.137807,-0.0582 -12.311255,0.395986 -17.730831,1.370374 -8.808744,1.583735 -23.114815,7.559158 -31.014476,12.954647 -12.038734,8.222491 -22.133118,20.963384 -27.204827,34.336267 -5.717139,15.074707 -5.985068,32.251469 -0.75332,48.298399 9.630101,29.53769 34.843144,48.38148 63.147272,47.1949 3.857959,-0.16172 8.487652,-0.78215 11.264462,-1.50946 19.36733,-5.07277 33.65045,-20.03355 36.85533,-38.60482 1.23294,-7.1446 0.77191,-12.34667 -1.74174,-19.65966 -4.36042,-12.685916 -12.82401,-20.238106 -25.59794,-22.843082 -8.10287,-1.652413 -16.08119,0.661144 -21.717694,6.29765 -4.041306,4.041292 -5.973154,8.440561 -6.348469,14.456332 -0.345107,5.5317 0.54959,8.45963 3.735519,12.22956 2.046351,2.42146 6.90131,4.80524 9.766989,4.79526 2.555655,-0.01 6.383975,-1.71537 8.145275,-3.63103 1.38266,-1.50381 3.13754,-5.81499 3.13754,-7.70756 0,-2.50688 3.42722,-0.15627 4.71052,3.23073 2.19221,5.78586 -1.5836,12.10338 -9.43445,15.78575 -2.85323,1.33827 -4.04615,1.53902 -8.933914,1.50311 -6.822342,-0.0501 -10.29832,-1.2487 -16.133117,-5.56339 -10.884101,-8.04854 -15.650801,-23.50241 -11.82503,-38.336553 1.538364,-5.964864 5.719065,-14.467851 9.149944,-18.609811 9.594211,-11.58274 28.360467,-18.718346 43.922527,-16.700754 17.57425,2.278464 32.87767,11.968917 44.04326,27.888249 13.35694,19.043669 16.67643,39.098699 10.31979,62.349479 -1.19522,4.37182 -5.69737,16.81462 -7.47385,20.65585 -1.49893,3.24105 -0.55537,2.68531 2.58824,-1.52499 4.62566,-6.19528 8.13295,-12.35381 10.72717,-18.83433 5.41452,-13.5258 6.58818,-22.95434 4.66887,-37.50627 -2.00165,-15.176254 -8.49222,-28.825634 -18.9381,-39.826238 -12.95707,-13.645147 -27.8945,-19.754264 -48.30052,-19.754264 -8.75568,0 -14.44416,0.673526 -20.447576,2.422334 -16.703205,4.865678 -28.041301,14.128716 -35.986935,29.401235 -4.05143,7.787351 -5.746239,12.07168 -5.746239,22.058693 0,6.44558 0.798569,8.69898 2.214055,12.79791 4.471364,12.94815 10.898787,20.72866 21.481882,26.00532 10.139237,5.05535 20.729143,4.93398 29.730233,-0.34101 3.8352,-2.24757 8.87077,-8.07521 10.37982,-12.01212 1.89109,-4.93358 1.91742,-11.41794 0.0615,-15.01409 -1.58385,-3.06877 -5.00963,-6.84495 -7.30301,-8.04926 -4.67125,-2.452952 -10.82799,-2.18409 -14.522698,0.63399 -1.028236,0.78428 -2.036602,1.25911 -2.240196,1.0555 -0.203608,-0.2036 -0.369945,-1.54086 -0.369945,-2.97232 0,-6.869459 5.768239,-10.667072 13.820929,-9.098392 8.89623,1.732995 15.40107,7.378052 18.84209,16.351982 2.89634,7.55345 1.23266,19.34439 -3.77011,26.7212 C 114.70572,149.7138 96.536709,155.00448 77.866727,148.6544 66.36918,144.74381 55.049324,134.07878 49.943883,120.23947 45.443896,108.04131 45.011009,103.72151 45.443759,96.948067 45.876496,90.174622 47.858841,84.466435 49.943883,79.196764 51.998406,74.004222 55.197196,69.37908 58.486651,64.897868 61.698142,60.522958 71.74796,51.049335 76.542245,47.877289 86.428731,41.336126 99.5405,36.182399 110.12168,34.678368 c 15.05538,-2.139992 28.57542,-0.178455 45.24418,6.564511 3.63905,1.47209 7.01715,2.821825 7.50705,2.999146 1.69922,0.615063 -3.88492,-4.048167 -8.66986,-7.240167 -8.64046,-5.764028 -20.93171,-10.871723 -31.19804,-12.964539 -5.27764,-1.075858 -11.3798,-1.646787 -17.5176,-1.705016 z m 10.03246,37.684186 c -2.87915,-0.05006 -5.755,0.191605 -8.59855,0.735666 -15.287135,2.92491 -27.91777,14.062488 -31.10344,27.426515 -1.910904,8.016364 -0.750123,18.93879 2.739339,25.77869 1.561043,3.0599 2.146824,2.80055 0.821099,-0.36361 -1.320971,-3.15277 -1.760976,-11.16304 -0.832397,-15.152459 1.610937,-6.921038 7.665737,-15.093532 14.257953,-19.244527 14.655896,-9.228576 35.402086,-4.819731 48.240506,10.251316 3.55019,4.167558 7.78401,12.64771 9.11817,18.26458 1.49475,6.29299 1.34837,18.7984 -0.29158,24.93994 -2.67531,10.01868 -7.51237,17.91036 -15.67281,25.5704 -19.46443,18.27087 -48.455853,21.96668 -73.069603,9.31444 -12.760317,-6.55921 -24.115503,-17.98741 -30.209609,-30.40237 -1.354826,-2.76004 -2.556376,-4.74051 -2.669444,-4.40129 -0.319859,0.95958 3.265266,10.68745 5.857094,15.89378 8.421489,16.91683 25.197386,30.7151 45.039435,37.04384 11.505375,3.66972 22.386807,4.55876 34.144247,2.78947 18.94074,-2.85028 37.18191,-15.93935 46.44087,-33.32386 8.46922,-15.90168 10.80694,-34.62449 6.39436,-51.20435 C 162.9677,92.067643 158.64811,84.315323 150.69977,76.250569 140.52803,65.92986 127.99606,60.233396 115.51981,60.016489 Z"
         sodipodi:nodetypes="ssssssssssssscsssssssssssssssssssssssssssssssssssscsssssssssssssssssssssssssssss" /><path
         style="opacity:1;fill:url(#linearGradient36676);fill-opacity:1;stroke:none;stroke-width:5.29167;stroke-linecap:round;stroke-dasharray:none;stroke-opacity:1"
         d="m 163.23166,44.308983 c 2.72419,-0.501524 -55.7758,-32.997898 -98.721644,5.892139 0,0 -22.941497,21.075069 -22.182937,51.833138 0.179342,7.27194 3.290432,17.6174 7.595433,25.13955 1.420837,2.48264 19.819272,30.06783 51.310088,23.29793 0,0 -30.850267,7.98422 -48.682157,-26.58582 0,0 -18.392507,-31.523938 13.57735,-64.307527 0,0 32.885533,-40.082672 89.281367,-18.073578 2.57348,1.004332 7.36992,2.887488 7.8225,2.804168 z"
         id="path36668"
         sodipodi:nodetypes="scsscccss" /></g></g></svg>
